

<svg width="180" height="34" viewBox="0 0 180 34" fill="none" xmlns="http://www.w3.org/2000/svg">
<path d="M27.4347 0.661562L22.9445 0.00696484C22.8116 -0.019219 22.6788 0.0331455 22.6256 0.0855133L20.7126 2.5468C20.5798 2.7039 20.5532 2.91337 20.6063 3.09666C20.6595 3.27995 20.5001 3.43705 20.3141 3.41087L18.7465 3.07047C18.5073 3.01811 18.2416 3.09666 18.0822 3.30614L11.8649 11.1613C11.7587 11.3184 11.5461 11.3708 11.3601 11.2922L8.99542 10.2449C8.78286 10.1401 8.54374 10.1663 8.35775 10.2972L7.16212 11.1089C6.97613 11.2398 6.71043 11.266 6.49787 11.1613L5.91334 10.8733C5.54137 10.69 5.08969 10.8995 4.98341 11.2922L4.55829 13.1513C4.45201 13.5964 4.638 14.0415 5.03655 14.2772L5.93991 14.827L8.836 16.5814L10.2442 17.4454C10.6427 17.6811 11.1476 17.6287 11.493 17.3407L13.8577 15.2984C14.0436 15.1412 14.3359 15.0889 14.5485 15.2198L15.2658 15.5864C15.505 15.7173 15.7972 15.6649 15.9832 15.4816L17.1789 14.3819C17.3648 14.1986 17.6571 14.1724 17.8697 14.2772L19.6498 15.0889C19.9155 15.2198 20.2344 15.1412 20.4204 14.9056L21.244 13.8582L27.4879 5.97689C27.7801 5.61031 27.5941 5.06045 27.1159 4.95572L25.7343 4.64151C25.442 4.58914 25.3092 4.22257 25.5217 4.0131L27.6739 1.36852C27.8864 1.05432 27.7536 0.71393 27.4347 0.661562Z" fill="#8257E6"></path><path d="M6.84272 16.529C6.70987 16.4505 6.57702 16.5814 6.63016 16.7123L7.2944 18.4404C7.34754 18.5713 7.34754 18.7023 7.32097 18.8332L6.73644 21.085C6.70987 21.2421 6.76301 21.3992 6.86929 21.4778L8.54317 22.7608C8.70259 22.8655 8.91515 22.8655 9.04799 22.7346L10.8016 21.2159C10.9079 21.1374 11.0407 21.085 11.147 21.0588L13.1397 20.8493C13.2726 20.8232 13.3257 20.6399 13.1929 20.5613L6.84272 16.529Z" fill="#8257E6"></path><path d="M6.25834 22.3418C6.15206 22.2633 5.99265 22.2371 5.8598 22.2895L4.45161 22.9702C4.3719 22.9964 4.31876 23.075 4.26562 23.1535L1.26326 30.4588C1.26326 30.485 1.26326 30.485 1.26326 30.5112C1.28983 30.5374 1.3164 30.5636 1.36953 30.5636L2.06035 30.3017C2.08692 30.3017 2.11348 30.3017 2.14005 30.3017C2.16662 30.3279 2.19319 30.3803 2.16662 30.4065L0.0144825 33.8889C-0.0386568 33.9675 0.0676241 34.046 0.120763 33.9675L7.90566 26.2694C7.98537 26.1909 8.01194 26.1123 8.03851 26.0076L8.19793 24.0176C8.19793 23.8867 8.14479 23.7819 8.06508 23.7034L6.25834 22.3418Z" fill="#8257E6"></path>
</svg>